# xmcd
#
# Track frame offsets:
#	150
#	16425
#	35025
#	50475
#	64275
#	83550
#	102675
#	118875
#	131475
#	148575
#	164850
#	183450
#	198900
#	212700
#	231975
#	251100
#	267300
#	279900
#
# Disc length: 3962 seconds
#
# Revision: 1
# Processed by: cddbd v1.5.2PL0 Copyright (c) Steve Scherf et al.
# Submitted via: audiograbber 1.83.01
#
DISCID=1c0f7812
DTITLE=Country Hits Monthly - CHM9610-3
DYEAR=1900
DGENRE=Country
TTITLE0=Clint Black (Vocal) - Like The Rain
TTITLE1=Deana Carter (Vocal) - Strawberry Wine
TTITLE2=John Berry (Vocal) - Change My Mind
TTITLE3=Reba McEntire (Vocal) - Fear Of Being Alone, The
TTITLE4=George Strait (Vocal) - I Can Still Make Cheyenne
TTITLE5=Patty Loveless (Vocal) - Lonely Too Long
TTITLE6=Kenny Chesney (Vocal) - Me and You
TTITLE7=Mila Mason (Vocal) - That's Enough Of That
TTITLE8=David Lee Murphy (Vocal) - Road You Leave Behind, The
TTITLE9=Clint Black - Like The Rain
TTITLE10=Deana Carter - Strawberry Wine
TTITLE11=John Berry - Change My Mind
TTITLE12=Reba McEntire - Fear Of Being Alone, The
TTITLE13=George Strait - I Can Still Make Cheyenne
TTITLE14=Patty Loveless - Lonely Too Long
TTITLE15=Kenny Chesney - Me and You
TTITLE16=Mila Mason - That's Enough Of That
TTITLE17=David Lee Murphy - Road You Leave Behind, The
EXTD=
EXTT0=
EXTT1=
EXTT2=
EXTT3=
EXTT4=
EXTT5=
EXTT6=
EXTT7=
EXTT8=
EXTT9=
EXTT10=
EXTT11=
EXTT12=
EXTT13=
EXTT14=
EXTT15=
EXTT16=
EXTT17=
PLAYORDER=
